Coordinates
nRows=5
nColumns=24

# SIMM Motion File Header:
name Coordinates
datacolumns 24
datarows 5
otherdata 1
range 0.60367000000000004000 0.60767000000000004000
endheader
time	pelvis_tx	pelvis_ty	pelvis_tz	pelvis_tilt	pelvis_list	pelvis_rotation	hip_flexion_r	hip_adduction_r	hip_rotation_r	knee_angle_r	ankle_angle_r	subtalar_angle_r	mtp_angle_r	hip_flexion_l	hip_adduction_l	hip_rotation_l	knee_angle_l	ankle_angle_l	subtalar_angle_l	mtp_angle_l	lumbar_extension	lumbar_bending	lumbar_rotation
      0.60367000000000004000	      0.96408478857718438000	      0.89070237655372653000	     -0.17616845903143968000	      1.44900659613142180000	     -1.00772339952347470000	     -1.14132151588690520000	     -7.78287726167938660000	      5.47257996868681840000	     -2.90944285751128980000	     -6.40334890928814280000	     11.83387523835763700000	      0.00000000000005246463	      0.00000000000017961719	     22.72228394142237600000	     -3.55542001393402350000	      0.64224589960839895000	    -22.88803590245558100000	      3.66559505555834390000	      0.00000000000004631757	     -0.00000000000033445640	     -9.85933935067415310000	      1.83498881686627270000	      4.11069950778497970000
      0.60467000000000004000	      0.96467127278991482000	      0.89063145472214700000	     -0.17611958278002085000	      1.46815917906425100000	     -1.02485767428837950000	     -1.15514635906033790000	     -7.85489745347434630000	      5.49039633762787370000	     -2.90947749823103540000	     -6.38690874195478830000	     11.85710545642855300000	      0.00000000000005271371	      0.00000000000017983830	     22.69109987348642600000	     -3.56730381260598370000	      0.66265442945046971000	    -22.68510200091934000000	      3.62225629866518960000	      0.00000000000004652052	     -0.00000000000033593103	     -9.88972618196624960000	      1.84548078356216380000	      4.13247250716898500000
      0.60567000000000004000	      0.96525858085986804000	      0.89055874201469143000	     -0.17607182262244966000	      1.48727838981129050000	     -1.04211043187995700000	     -1.16871943639228370000	     -7.92653287449418450000	      5.50820667757146950000	     -2.90959883982458270000	     -6.37133275648869010000	     11.88010536405640300000	      0.00000000000005299259	      0.00000000000017993794	     22.65954285194234400000	     -3.57944090581098930000	      0.68312144850236667000	    -22.48352091212595400000	      3.57871915174385120000	      0.00000000000004671151	     -0.00000000000033741122	     -9.92031533200411890000	      1.85607696462514490000	      4.15396026190511680000
      0.60667000000000004000	      0.96584588892982126000	      0.89048602930723597000	     -0.17602406246487848000	      1.50639760055832990000	     -1.05936318947153450000	     -1.18229251372422970000	     -7.99816829551402280000	      5.52601701751506540000	     -2.90972018141812990000	     -6.35575677102259280000	     11.90310527168425200000	      0.00000000000005327147	      0.00000000000018003759	     22.62798583039826300000	     -3.59157799901599480000	      0.70358846755426374000	    -22.28193982333256400000	      3.53518200482251290000	      0.00000000000004690251	     -0.00000000000033889141	     -9.95090448204198990000	      1.86667314568812600000	      4.17544801664124860000
      0.60767000000000004000	      0.96643359089107961000	      0.89041229932750154000	     -0.17597686912085481000	      1.52537517083774990000	     -1.07662967112488640000	     -1.19576424555727480000	     -8.06942675085231720000	      5.54377546786633960000	     -2.90983167017940540000	     -6.34073213031713130000	     11.92637844038446800000	      0.00000000000005355140	      0.00000000000018015703	     22.59640241482274100000	     -3.60379268449927270000	      0.72407303773545384000	    -22.08111228967841600000	      3.49151954761529120000	      0.00000000000004709054	     -0.00000000000034036112	     -9.98145347444743970000	      1.87727599678571690000	      4.19680446826015000000
